<mxfile host="app.diagrams.net" modified="2023-04-11T18:29:22.579Z" agent="Mozilla/5.0 (X11; Ubuntu; Linux x86_64; rv:109.0) Gecko/20100101 Firefox/111.0" etag="EG-Hooce1gUiEPsmRmWc" version="21.1.6">
  <diagram name="PÃ¡gina-1" id="cz_vGB7TLuIkOXlbYfrg">
    <mxGraphModel dx="766" dy="428" grid="1" gridSize="10" guides="1" tooltips="1" connect="1" arrows="1" fold="1" page="1" pageScale="1" pageWidth="827" pageHeight="1169" math="0" shadow="0">
      <root>
        <mxCell id="0" />
        <mxCell id="1" parent="0" />
        <mxCell id="SI-yyaDshADIb_-jPWqH-5" style="edgeStyle=orthogonalEdgeStyle;rounded=0;orthogonalLoop=1;jettySize=auto;html=1;exitX=0;exitY=0.5;exitDx=0;exitDy=0;entryX=0.5;entryY=0.5;entryDx=0;entryDy=0;entryPerimeter=0;" edge="1" parent="1" source="SI-yyaDshADIb_-jPWqH-1" target="SI-yyaDshADIb_-jPWqH-2">
          <mxGeometry relative="1" as="geometry" />
        </mxCell>
        <mxCell id="SI-yyaDshADIb_-jPWqH-16" style="edgeStyle=orthogonalEdgeStyle;rounded=0;orthogonalLoop=1;jettySize=auto;html=1;exitX=0.5;exitY=0;exitDx=0;exitDy=0;entryX=0.5;entryY=0;entryDx=0;entryDy=0;entryPerimeter=0;" edge="1" parent="1" source="SI-yyaDshADIb_-jPWqH-1" target="SI-yyaDshADIb_-jPWqH-11">
          <mxGeometry relative="1" as="geometry" />
        </mxCell>
        <mxCell id="SI-yyaDshADIb_-jPWqH-18" style="edgeStyle=orthogonalEdgeStyle;rounded=0;orthogonalLoop=1;jettySize=auto;html=1;exitX=0.5;exitY=1;exitDx=0;exitDy=0;entryX=0;entryY=1;entryDx=0;entryDy=0;entryPerimeter=0;" edge="1" parent="1" source="SI-yyaDshADIb_-jPWqH-1" target="SI-yyaDshADIb_-jPWqH-11">
          <mxGeometry relative="1" as="geometry" />
        </mxCell>
        <mxCell id="SI-yyaDshADIb_-jPWqH-30" style="edgeStyle=orthogonalEdgeStyle;rounded=0;orthogonalLoop=1;jettySize=auto;html=1;exitX=0;exitY=0.25;exitDx=0;exitDy=0;entryX=0.75;entryY=0.1;entryDx=0;entryDy=0;entryPerimeter=0;" edge="1" parent="1" source="SI-yyaDshADIb_-jPWqH-1" target="SI-yyaDshADIb_-jPWqH-2">
          <mxGeometry relative="1" as="geometry">
            <Array as="points">
              <mxPoint x="380" y="736" />
            </Array>
          </mxGeometry>
        </mxCell>
        <mxCell id="SI-yyaDshADIb_-jPWqH-1" value="&lt;div&gt;Sistema eventos academicos&lt;/div&gt;" style="rounded=0;whiteSpace=wrap;html=1;" vertex="1" parent="1">
          <mxGeometry x="380" y="730" width="120" height="60" as="geometry" />
        </mxCell>
        <mxCell id="SI-yyaDshADIb_-jPWqH-9" style="edgeStyle=orthogonalEdgeStyle;rounded=0;orthogonalLoop=1;jettySize=auto;html=1;exitX=0.5;exitY=0;exitDx=0;exitDy=0;exitPerimeter=0;entryX=0.433;entryY=0;entryDx=0;entryDy=0;entryPerimeter=0;" edge="1" parent="1" source="SI-yyaDshADIb_-jPWqH-2" target="SI-yyaDshADIb_-jPWqH-1">
          <mxGeometry relative="1" as="geometry" />
        </mxCell>
        <mxCell id="SI-yyaDshADIb_-jPWqH-20" style="edgeStyle=orthogonalEdgeStyle;rounded=0;orthogonalLoop=1;jettySize=auto;html=1;exitX=1;exitY=1;exitDx=0;exitDy=0;exitPerimeter=0;entryX=0.4;entryY=1.017;entryDx=0;entryDy=0;entryPerimeter=0;" edge="1" parent="1" source="SI-yyaDshADIb_-jPWqH-2" target="SI-yyaDshADIb_-jPWqH-1">
          <mxGeometry relative="1" as="geometry">
            <mxPoint x="430" y="800" as="targetPoint" />
            <Array as="points">
              <mxPoint x="140" y="810" />
              <mxPoint x="428" y="810" />
            </Array>
          </mxGeometry>
        </mxCell>
        <mxCell id="SI-yyaDshADIb_-jPWqH-27" style="edgeStyle=orthogonalEdgeStyle;rounded=0;orthogonalLoop=1;jettySize=auto;html=1;exitX=0.5;exitY=0;exitDx=0;exitDy=0;exitPerimeter=0;entryX=0.25;entryY=0;entryDx=0;entryDy=0;" edge="1" parent="1" source="SI-yyaDshADIb_-jPWqH-2" target="SI-yyaDshADIb_-jPWqH-1">
          <mxGeometry relative="1" as="geometry">
            <Array as="points">
              <mxPoint x="125" y="680" />
              <mxPoint x="410" y="680" />
            </Array>
          </mxGeometry>
        </mxCell>
        <mxCell id="SI-yyaDshADIb_-jPWqH-2" value="&lt;div&gt;Usuario&lt;/div&gt;&lt;div&gt;&lt;br&gt;&lt;/div&gt;" style="shape=umlActor;verticalLabelPosition=bottom;verticalAlign=top;html=1;outlineConnect=0;" vertex="1" parent="1">
          <mxGeometry x="110" y="730" width="30" height="60" as="geometry" />
        </mxCell>
        <mxCell id="SI-yyaDshADIb_-jPWqH-6" value="&lt;div&gt;ListaEventos&lt;/div&gt;" style="text;html=1;align=center;verticalAlign=middle;resizable=0;points=[];autosize=1;strokeColor=none;fillColor=none;" vertex="1" parent="1">
          <mxGeometry x="225" y="735" width="90" height="30" as="geometry" />
        </mxCell>
        <mxCell id="SI-yyaDshADIb_-jPWqH-15" style="edgeStyle=orthogonalEdgeStyle;rounded=0;orthogonalLoop=1;jettySize=auto;html=1;exitX=0.5;exitY=0.5;exitDx=0;exitDy=0;exitPerimeter=0;entryX=1;entryY=0.5;entryDx=0;entryDy=0;" edge="1" parent="1" source="SI-yyaDshADIb_-jPWqH-11" target="SI-yyaDshADIb_-jPWqH-1">
          <mxGeometry relative="1" as="geometry" />
        </mxCell>
        <mxCell id="SI-yyaDshADIb_-jPWqH-23" style="edgeStyle=orthogonalEdgeStyle;rounded=0;orthogonalLoop=1;jettySize=auto;html=1;exitX=0.5;exitY=0;exitDx=0;exitDy=0;exitPerimeter=0;" edge="1" parent="1" source="SI-yyaDshADIb_-jPWqH-11">
          <mxGeometry relative="1" as="geometry">
            <mxPoint x="450" y="730" as="targetPoint" />
            <Array as="points">
              <mxPoint x="715" y="680" />
              <mxPoint x="450" y="680" />
              <mxPoint x="450" y="730" />
            </Array>
          </mxGeometry>
        </mxCell>
        <mxCell id="SI-yyaDshADIb_-jPWqH-11" value="&lt;div&gt;Investigador&lt;/div&gt;" style="shape=umlActor;verticalLabelPosition=bottom;verticalAlign=top;html=1;outlineConnect=0;" vertex="1" parent="1">
          <mxGeometry x="700" y="730" width="30" height="60" as="geometry" />
        </mxCell>
        <mxCell id="SI-yyaDshADIb_-jPWqH-13" value="RegistroEvento " style="text;html=1;align=center;verticalAlign=middle;resizable=0;points=[];autosize=1;strokeColor=none;fillColor=none;" vertex="1" parent="1">
          <mxGeometry x="560" y="735" width="100" height="30" as="geometry" />
        </mxCell>
        <mxCell id="SI-yyaDshADIb_-jPWqH-17" value="RegistroAprobado" style="text;html=1;align=center;verticalAlign=middle;resizable=0;points=[];autosize=1;strokeColor=none;fillColor=none;" vertex="1" parent="1">
          <mxGeometry x="530" y="685" width="120" height="30" as="geometry" />
        </mxCell>
        <mxCell id="SI-yyaDshADIb_-jPWqH-19" value="RegsitroParticipacion" style="text;html=1;align=center;verticalAlign=middle;resizable=0;points=[];autosize=1;strokeColor=none;fillColor=none;" vertex="1" parent="1">
          <mxGeometry x="520" y="780" width="140" height="30" as="geometry" />
        </mxCell>
        <mxCell id="SI-yyaDshADIb_-jPWqH-21" value="LogInMedianteTerceros" style="text;html=1;align=center;verticalAlign=middle;resizable=0;points=[];autosize=1;strokeColor=none;fillColor=none;" vertex="1" parent="1">
          <mxGeometry x="225" y="785" width="150" height="30" as="geometry" />
        </mxCell>
        <mxCell id="SI-yyaDshADIb_-jPWqH-22" value="TagBusqueda" style="text;html=1;align=center;verticalAlign=middle;resizable=0;points=[];autosize=1;strokeColor=none;fillColor=none;" vertex="1" parent="1">
          <mxGeometry x="220" y="680" width="100" height="30" as="geometry" />
        </mxCell>
        <mxCell id="SI-yyaDshADIb_-jPWqH-24" value="&lt;div&gt;CrearEvento&lt;/div&gt;" style="text;html=1;align=center;verticalAlign=middle;resizable=0;points=[];autosize=1;strokeColor=none;fillColor=none;" vertex="1" parent="1">
          <mxGeometry x="540" y="655" width="90" height="30" as="geometry" />
        </mxCell>
        <mxCell id="SI-yyaDshADIb_-jPWqH-28" value="UnirseEvento" style="text;html=1;align=center;verticalAlign=middle;resizable=0;points=[];autosize=1;strokeColor=none;fillColor=none;" vertex="1" parent="1">
          <mxGeometry x="225" y="650" width="90" height="30" as="geometry" />
        </mxCell>
        <mxCell id="SI-yyaDshADIb_-jPWqH-31" value="ListaEventosSegunTag" style="text;html=1;align=center;verticalAlign=middle;resizable=0;points=[];autosize=1;strokeColor=none;fillColor=none;" vertex="1" parent="1">
          <mxGeometry x="210" y="710" width="140" height="30" as="geometry" />
        </mxCell>
      </root>
    </mxGraphModel>
  </diagram>
</mxfile>
